# xmcd
#
# Track frame offsets: 
#        150
#        14679
#        29994
#        51933
#        65169
#        88403
#        112070
#        128870
#        148522
#        169628
#        184815
#        204700
#
# Disc length: 2963 seconds
#
# Revision: 0
# Processed by: cddbd v1.5.2PL0 Copyright (c) Steve Scherf et al.
# Submitted via: ExactAudioCopy v1.3
#
DISCID=c20b910c
DTITLE=Craig Caffall Band - Turns To The Blues
DYEAR=2019
DGENRE=Blues
TTITLE0=Da Groove
TTITLE1=Tell Me
TTITLE2=Turns To The Blues
TTITLE3=Blue Voo-Doo
TTITLE4=Highway Of The Blue Moon
TTITLE5=Love and Good Road
TTITLE6=Traveling On
TTITLE7=Back Slide
TTITLE8=Winter Mountain Blues
TTITLE9=Helluva Time Last Night
TTITLE10=Back Door Blues
TTITLE11=Fade To Blue
EXTD=
EXTT0=
EXTT1=
EXTT2=
EXTT3=
EXTT4=
EXTT5=
EXTT6=
EXTT7=
EXTT8=
EXTT9=
EXTT10=
EXTT11=
PLAYORDER=
